<?xml version="1.0" encoding="utf-8"?>
<!-- Generator: Adobe Illustrator 19.1.0, SVG Export Plug-In . SVG Version: 6.00 Build 0)  -->
<!DOCTYPE svg PUBLIC "-//W3C//DTD SVG 1.1//EN" "http://www.w3.org/Graphics/SVG/1.1/DTD/svg11.dtd">
<svg version="1.1" id="Layer_1" xmlns="http://www.w3.org/2000/svg" xmlns:xlink="http://www.w3.org/1999/xlink" x="0px" y="0px"
	 viewBox="-34 0 194 64" style="enable-background:new -34 0 194 64;" xml:space="preserve">
<style type="text/css">
	.st0{fill:#37A4DC;}
	.st1{opacity:0.25;fill:#231F20;}
	.st2{opacity:0.2;fill:#231F20;}
	.st3{fill:#FFFFFF;}
	.st4{fill:#808184;}
</style>
<g>
	<g>
		<path class="st0" d="M94.6,2v59.9H6.7V2H94.6 M96.6,0H4.7v63.9h91.9V0L96.6,0z"/>
	</g>
</g>
<rect x="-34" y="0" class="st0" width="63.9" height="63.9"/>
<path class="st1" d="M4.1,31v7.1h-17.4v8.4H8v7.2h-29.2V16.5H8v7.2h-21.3V31H4.1z M23.3,38.6v15.1h-7.9V16.5h7.9v15.1h17.5V16.5h7.9
	v37.2h-7.9V38.6H23.3z M73.4,16.5c5.5,0,9.6,1.6,12.2,4.7c2.6,3.1,3.9,7.5,3.9,12.9v2c0,5.5-1.3,9.8-3.9,12.9
	c-2.6,3.1-6.7,4.7-12.2,4.7H56.8V16.5H73.4z M73.3,46.5c2.8,0,5-0.9,6.3-2.6c1.4-1.7,2.1-4.2,2.1-7.5v-2.7c0-3.2-0.7-5.7-2.1-7.5
	c-1.4-1.7-3.5-2.6-6.4-2.6h-8.5v22.8H73.3z"/>
<g>
	<polygon class="st0" points="38.7,29 38.7,29 38.7,36.1 38.7,36.1 38.7,51.1 46.6,51.1 46.6,13.9 38.7,13.9 	"/>
	<path class="st0" d="M83.6,18.6c-2.6-3.1-6.7-4.7-12.2-4.7H54.7v37.2h16.6c5.5,0,9.6-1.6,12.2-4.7c2.6-3.1,3.9-7.4,3.9-12.9v-2
		C87.5,26.1,86.2,21.8,83.6,18.6z M79.7,33.9c0,3.2-0.7,5.7-2.1,7.5c-1.4,1.7-3.5,2.6-6.3,2.6h-8.6V21.1h8.5c2.9,0,5.1,0.9,6.4,2.6
		c1.4,1.7,2.1,4.2,2.1,7.5V33.9z"/>
</g>
<rect x="38.7" y="30.6" class="st2" width="7" height="7.9"/>
<path class="st3" d="M42.6,36.1H19.3v15.1h-7.6V13.9h7.6V29h23.4V36.1z M4.7,21.1h-20.4v7.3H0.9v7.1h-16.6v8.4H4.7v7.2h-27.9V13.9
	H4.7V21.1z"/>
<g>
	<path class="st4" d="M106.7,7.8v1.8h-4.3v6.2h5.3v1.8h-7.2V0.1h7.2v1.8h-5.3v6H106.7z"/>
	<path class="st4" d="M113.4,0.1c1.4,0,2.4,0.4,3,1.2c0.6,0.8,1,1.8,1,3.2v8.8c0,1.4-0.3,2.4-1,3.2c-0.6,0.8-1.6,1.2-3,1.2h-4.1V0.1
		H113.4z M113.4,15.8c0.7,0,1.2-0.2,1.6-0.6c0.3-0.4,0.5-1,0.5-1.8v-9c0-0.8-0.2-1.4-0.5-1.8c-0.3-0.4-0.9-0.6-1.6-0.6h-2.1v14
		H113.4z"/>
	<path class="st4" d="M125.3,7.8v1.8H121v6.2h5.3v1.8H119V0.1h7.2v1.8H121v6H125.3z"/>
	<path class="st4" d="M129.6,17.6h-1.8V0.1h2.5l4.1,12.7V0.1h1.7v17.5h-2l-4.5-14.2V17.6z"/>
	<path class="st4" d="M102.4,32.9v7.9h-2V23.2h2v7.9h4.3v-7.9h2v17.5h-2v-7.9H102.4z"/>
	<path class="st4" d="M112.4,23.2v17.5h-2V23.2H112.4z"/>
	<path class="st4" d="M118.1,23.2c1.4,0,2.3,0.3,2.9,1c0.6,0.6,0.9,1.6,0.9,2.9v0.8c0,0.9-0.1,1.7-0.4,2.3c-0.3,0.6-0.8,1-1.6,1.2
		c0.9,0.2,1.5,0.7,1.8,1.3c0.4,0.6,0.5,1.5,0.5,2.4v1.5c0,1.3-0.3,2.3-1,3c-0.7,0.7-1.7,1.1-3,1.1h-4V23.2H118.1z M117.7,30.7
		c0.8,0,1.4-0.2,1.8-0.5c0.4-0.3,0.6-0.9,0.6-1.9v-1c0-0.8-0.1-1.4-0.4-1.7c-0.3-0.4-0.8-0.6-1.5-0.6h-1.9v5.7H117.7z M118.2,39
		c1.4,0,2.1-0.8,2.1-2.4V35c0-1-0.2-1.7-0.6-2c-0.4-0.4-1-0.6-1.9-0.6h-1.7V39H118.2z"/>
	<path class="st4" d="M127.8,23.2c1.4,0,2.3,0.3,2.9,1c0.6,0.6,0.9,1.6,0.9,2.9v0.8c0,0.9-0.1,1.7-0.4,2.3c-0.3,0.6-0.8,1-1.6,1.2
		c0.9,0.2,1.5,0.7,1.8,1.3c0.4,0.6,0.5,1.5,0.5,2.4v1.5c0,1.3-0.3,2.3-1,3c-0.7,0.7-1.7,1.1-3,1.1h-4V23.2H127.8z M127.3,30.7
		c0.8,0,1.4-0.2,1.8-0.5c0.4-0.3,0.6-0.9,0.6-1.9v-1c0-0.8-0.1-1.4-0.4-1.7c-0.3-0.4-0.8-0.6-1.5-0.6h-1.9v5.7H127.3z M127.9,39
		c1.4,0,2.1-0.8,2.1-2.4V35c0-1-0.2-1.7-0.6-2s-1-0.6-1.9-0.6h-1.7V39H127.9z"/>
	<path class="st4" d="M139.7,31v1.8h-4.3V39h5.3v1.8h-7.2V23.2h7.2V25h-5.3v6H139.7z"/>
	<path class="st4" d="M146.2,23.2c1.4,0,2.4,0.3,3,1c0.6,0.7,0.9,1.7,0.9,3v1.4c0,1-0.2,1.8-0.5,2.4c-0.4,0.6-0.9,1-1.7,1.3
		c0.8,0.2,1.4,0.7,1.7,1.3c0.3,0.6,0.5,1.4,0.5,2.4v2.7c0,0.4,0,0.8,0,1.1c0,0.4,0.1,0.7,0.3,1h-2c-0.1-0.3-0.2-0.5-0.3-0.8
		c0-0.3-0.1-0.7-0.1-1.3v-2.8c0-1-0.2-1.7-0.7-2c-0.4-0.4-1.1-0.6-1.9-0.6h-1.4v7.5h-2V23.2H146.2z M145.7,31.5
		c0.8,0,1.4-0.2,1.8-0.5c0.4-0.3,0.7-1,0.7-1.9v-1.7c0-0.8-0.2-1.4-0.5-1.8c-0.3-0.4-0.8-0.6-1.6-0.6h-1.9v6.5H145.7z"/>
	<path class="st4" d="M154.6,40.7V25h-3.2v-1.8h8.4V25h-3.2v15.7H154.6z"/>
	<path class="st4" d="M104.6,46.4c1.4,0,2.4,0.4,3,1.2c0.6,0.8,1,1.8,1,3.2v8.8c0,1.4-0.3,2.4-1,3.2c-0.6,0.8-1.6,1.2-3,1.2h-4.1
		V46.4H104.6z M104.6,62.1c0.7,0,1.2-0.2,1.6-0.6c0.3-0.4,0.5-1,0.5-1.8v-9c0-0.8-0.2-1.4-0.5-1.8c-0.3-0.4-0.9-0.6-1.6-0.6h-2.1v14
		H104.6z"/>
	<path class="st4" d="M116.4,54.1v1.8h-4.3v6.2h5.3v1.8h-7.2V46.4h7.2v1.8h-5.3v6H116.4z"/>
	<path class="st4" d="M122.7,46.2c1.3,0,2.3,0.4,3,1.2c0.6,0.8,1,1.9,1,3.2v0.5h-1.9v-0.6c0-0.8-0.2-1.4-0.5-1.9
		c-0.3-0.4-0.8-0.6-1.5-0.6s-1.2,0.2-1.5,0.6c-0.3,0.4-0.5,1-0.5,1.8c0,0.7,0.1,1.2,0.4,1.7c0.3,0.5,0.7,0.9,1.1,1.3
		c0.4,0.4,0.9,0.8,1.4,1.2c0.5,0.4,1,0.8,1.4,1.3c0.4,0.5,0.8,1,1.1,1.6c0.3,0.6,0.4,1.3,0.4,2.1c0,1.3-0.3,2.4-1,3.2
		c-0.6,0.8-1.6,1.2-3,1.2c-1.3,0-2.3-0.4-3-1.2c-0.6-0.8-0.9-1.9-0.9-3.2v-1h1.8v1.1c0,0.8,0.2,1.4,0.5,1.9c0.3,0.4,0.9,0.7,1.6,0.7
		c0.7,0,1.2-0.2,1.6-0.7c0.3-0.4,0.5-1.1,0.5-1.9c0-0.7-0.1-1.2-0.4-1.7c-0.3-0.5-0.7-0.9-1.1-1.3c-0.4-0.4-0.9-0.8-1.4-1.2
		c-0.5-0.4-1-0.8-1.4-1.3c-0.4-0.5-0.8-1-1.1-1.6c-0.3-0.6-0.4-1.3-0.4-2.1c0-1.4,0.3-2.4,0.9-3.2C120.4,46.6,121.4,46.2,122.7,46.2
		z"/>
	<path class="st4" d="M130.1,46.4v17.5h-2V46.4H130.1z"/>
	<path class="st4" d="M135.8,46.2c1.4,0,2.3,0.4,3,1.2c0.6,0.8,1,1.9,1,3.2v1.5h-1.8v-1.6c0-0.8-0.2-1.4-0.5-1.9
		c-0.3-0.4-0.8-0.7-1.6-0.7c-0.7,0-1.2,0.2-1.6,0.7c-0.3,0.4-0.5,1.1-0.5,1.9v9.3c0,0.8,0.2,1.4,0.5,1.9c0.3,0.4,0.9,0.7,1.6,0.7
		c0.7,0,1.2-0.2,1.6-0.7c0.3-0.4,0.5-1.1,0.5-1.9v-3.5h-1.8v-1.8h3.7v5.2c0,1.3-0.3,2.4-1,3.2c-0.6,0.8-1.6,1.2-3,1.2
		c-1.3,0-2.3-0.4-3-1.2c-0.6-0.8-1-1.9-1-3.2v-9.1c0-0.7,0.1-1.3,0.2-1.8c0.2-0.5,0.4-1,0.7-1.4c0.3-0.4,0.7-0.7,1.2-0.9
		C134.5,46.3,135.1,46.2,135.8,46.2z"/>
	<path class="st4" d="M143.1,63.9h-1.8V46.4h2.5l4.1,12.7V46.4h1.7v17.5h-2l-4.5-14.2V63.9z"/>
</g>
</svg>
